<?xml version="1.0" encoding="UTF-8"?>
<svg id="Layer_1" data-name="Layer 1" xmlns="http://www.w3.org/2000/svg" width="377.5mm" height="148.5mm" viewBox="0 0 1070.0787 420.9449">
  <defs>
    <style>
      .cls-1 {
        fill: #256575;
      }
    </style>
  </defs>
  <path class="cls-1" d="M491.0447,140.2917v36.0569h-.0194c-.0024,6.4037-5.2039,11.5944-11.62,11.5944-.0012,0-.0024-.0002-.0036-.0002v.0002h-53.4781v-.0064c-.0427,.0005-.0839,.0064-.1266,.0064-6.4197,0-11.6212-5.1907-11.6236-11.5944h-.0087v-36.0569h-28.9241v85.9963c0,22.4782-18.1531,40.2605-40.6559,40.2605-15.7646,0-29.6967-9.3436-36.3057-22.539l-40.0944-80.4847c-6.7617-14.4101-20.9911-22.9515-36.5309-22.893s-30.0666,9.1611-36.4861,22.8749l-54.3608,117.2557h31.9856l48.523-105.0897c1.822-3.7729,5.8605-6.3771,10.3398-6.3771,4.449,0,8.4663,2.5724,10.3019,6.3089l39.4962,78.9931c10.8882,24.0002,35.0597,40.694,63.1299,40.694,37.432,0,68.1974-29.6891,69.5071-66.8027h.0958c.1361-6.2878,5.2753-11.3459,11.6109-11.3459,.0428,0,.084,.0059,.1266,.0064v-.0064h53.4781v.0002c.0012,0,.0024-.0002,.0036-.0002,6.4161,0,11.6176,5.1907,11.62,11.5944h.0194v52.025h28.9123V140.2917h-28.9123Z"/>
  <g>
    <path class="cls-1" d="M573.3215,139.8601l-16.1211,35.0474h3.5215l4.3613-9.6523h19.4082l4.4102,9.6523h3.5205l-16.1211-35.0474h-2.9795Zm9.8975,22.5386h-16.8174l8.3857-18.5127,8.4316,18.5127Z"/>
    <path class="cls-1" d="M620.7014,165.2551l4.4102,9.6523h3.5205l-16.1211-35.0474h-2.9795l-16.1211,35.0474h3.5215l4.3613-9.6523h19.4082Zm-1.2725-2.8564h-16.8164l8.3857-18.5127,8.4307,18.5127Z"/>
    <path class="cls-1" d="M651.756,163.469l8.1631,11.4385h3.7627l-8.6973-12.1772c5.0391-1.688,7.8057-5.5518,7.8057-10.9321,0-7.4751-5.3057-11.938-14.1924-11.938h-12.6729v35.0474h3.249v-11.2202h9.4238c1.001,0,2.0107-.0693,3.1582-.2183Zm7.7363-11.6709c0,5.7617-3.8691,8.9346-10.8945,8.9346h-9.4238v-17.8687h9.4238c7.0254,0,10.8945,3.1729,10.8945,8.9341Z"/>
    <polygon class="cls-1" points="676.2912 158.592 698.4709 158.592 698.4709 174.9074 701.7199 174.9074 701.7199 139.8601 698.4709 139.8601 698.4709 155.6369 676.2912 155.6369 676.2912 139.8601 673.0422 139.8601 673.0422 174.9074 676.2912 174.9074 676.2912 158.592"/>
    <path class="cls-1" d="M728.0851,175.1526c8.9883,0,14.1426-5.5298,14.1426-15.1719v-20.1206h-3.248v20.0225c0,8.1069-3.6494,12.2173-10.8457,12.2173-7.2285,0-10.8936-4.1104-10.8936-12.2173v-20.0225h-3.249v20.1206c0,9.6421,5.1367,15.1719,14.0938,15.1719Z"/>
    <path class="cls-1" d="M763.9191,172.1975c-4.2637,0-8.5996-1.647-11.0469-4.1963l-.3379-.3525-1.5254,2.5195,.1885,.207c2.6436,2.9023,7.6562,4.7773,12.7715,4.7773,5.8682,0,12.7217-2.4722,12.7217-9.4395,0-6.8125-6.2441-8.3408-11.7539-9.6895-4.9668-1.2153-9.6572-2.3633-9.6572-6.9692,0-4.0605,3.4678-6.4844,9.2773-6.4844,3.2402,0,6.5908,1.0293,9.1943,2.8242l.3662,.2524,1.248-2.6929-.251-.1812c-2.6973-1.9473-6.7422-3.1572-10.5576-3.1572-9.2354,0-12.5264,4.9014-12.5264,9.4883,0,6.9395,6.2773,8.4736,11.8164,9.8267,4.9346,1.2056,9.5947,2.3442,9.5947,6.9297,0,3.9683-3.5596,6.3374-9.5225,6.3374Z"/>
    <path class="cls-1" d="M559.7307,192.8601v20.1206c0,9.6421,5.1367,15.1719,14.0938,15.1719,8.9883,0,14.1426-5.5298,14.1426-15.1719v-20.1206h-3.248v20.0225c0,8.1069-3.6494,12.2173-10.8457,12.2173-7.2285,0-10.8936-4.1104-10.8936-12.2173v-20.0225h-3.249Z"/>
    <polygon class="cls-1" points="625.6682 221.9372 603.0158 193.0041 602.9035 192.8601 600.2394 192.8601 600.2394 227.9074 603.4885 227.9074 603.4885 198.8283 626.1896 227.7639 626.3019 227.9074 628.9172 227.9074 628.9172 192.8601 625.6682 192.8601 625.6682 221.9372"/>
    <rect class="cls-1" x="641.4387" y="192.8601" width="3.249" height="35.0474"/>
    <polygon class="cls-1" points="682.7433 192.8601 669.1203 223.3786 655.5978 193.0822 655.4982 192.8601 651.9328 192.8601 667.4553 227.6853 667.5549 227.9074 670.5392 227.9074 686.1613 192.8601 682.7433 192.8601"/>
    <polygon class="cls-1" points="696.7355 211.592 715.0109 211.592 715.0109 208.6369 696.7355 208.6369 696.7355 195.864 717.1662 195.864 717.1662 192.8601 693.4865 192.8601 693.4865 227.9074 717.9016 227.9074 717.9016 224.9035 696.7355 224.9035 696.7355 211.592"/>
    <path class="cls-1" d="M726.7609,192.8601v35.0474h3.249v-11.2202h9.4238c1.001,0,2.0107-.0693,3.1582-.2183l8.1621,11.4385h3.7637l-8.6973-12.1772c5.0391-1.688,7.8057-5.5518,7.8057-10.9321,0-7.4751-5.3057-11.938-14.1924-11.938h-12.6729Zm3.249,3.0039h9.4238c7.0254,0,10.8945,3.1729,10.8945,8.9341s-3.8691,8.9346-10.8945,8.9346h-9.4238v-17.8687Z"/>
    <path class="cls-1" d="M761.5998,202.1037c0,6.9395,6.2773,8.4736,11.8164,9.8267,4.9346,1.2056,9.5947,2.3442,9.5947,6.9297,0,3.9683-3.5596,6.3374-9.5225,6.3374-4.2637,0-8.5996-1.647-11.0469-4.1963l-.3379-.3525-1.5254,2.5195,.1885,.207c2.6436,2.9023,7.6562,4.7773,12.7715,4.7773,5.8682,0,12.7217-2.4722,12.7217-9.4395,0-6.8125-6.2441-8.3408-11.7539-9.6895-4.9668-1.2153-9.6572-2.3633-9.6572-6.9692,0-4.0605,3.4678-6.4844,9.2773-6.4844,3.2402,0,6.5908,1.0293,9.1943,2.8242l.3662,.2524,1.248-2.6929-.251-.1812c-2.6973-1.9473-6.7422-3.1572-10.5576-3.1572-9.2354,0-12.5264,4.9014-12.5264,9.4883Z"/>
    <rect class="cls-1" x="795.6105" y="192.8601" width="3.249" height="35.0474"/>
    <polygon class="cls-1" points="806.259 195.864 818.6057 195.864 818.6057 227.9074 821.8547 227.9074 821.8547 195.864 834.2014 195.864 834.2014 192.8601 806.259 192.8601 806.259 195.864"/>
    <polygon class="cls-1" points="844.9035 211.592 863.1789 211.592 863.1789 208.6369 844.9035 208.6369 844.9035 195.864 865.3342 195.864 865.3342 192.8601 841.6545 192.8601 841.6545 227.9074 866.0695 227.9074 866.0695 224.9035 844.9035 224.9035 844.9035 211.592"/>
    <polygon class="cls-1" points="871.8244 195.864 884.1711 195.864 884.1711 227.9074 887.4201 227.9074 887.4201 195.864 899.7668 195.864 899.7668 192.8601 871.8244 192.8601 871.8244 195.864"/>
    <path class="cls-1" d="M917.7609,209.0237c-4.9668-1.2153-9.6572-2.3633-9.6572-6.9692,0-4.0605,3.4678-6.4844,9.2773-6.4844,3.2402,0,6.5908,1.0293,9.1943,2.8242l.3662,.2524,1.248-2.6929-.251-.1812c-2.6973-1.9473-6.7422-3.1572-10.5576-3.1572-9.2354,0-12.5264,4.9014-12.5264,9.4883,0,6.9395,6.2773,8.4736,11.8164,9.8267,4.9346,1.2056,9.5947,2.3442,9.5947,6.9297,0,3.9683-3.5596,6.3374-9.5225,6.3374-4.2637,0-8.5996-1.647-11.0469-4.1963l-.3379-.3525-1.5254,2.5195,.1885,.207c2.6436,2.9023,7.6562,4.7773,12.7715,4.7773,5.8682,0,12.7217-2.4722,12.7217-9.4395,0-6.8125-6.2441-8.3408-11.7539-9.6895Z"/>
    <polygon class="cls-1" points="585.4533 261.6369 563.2736 261.6369 563.2736 245.8601 560.0246 245.8601 560.0246 280.9074 563.2736 280.9074 563.2736 264.592 585.4533 264.592 585.4533 280.9074 588.7023 280.9074 588.7023 245.8601 585.4533 245.8601 585.4533 261.6369"/>
    <path class="cls-1" d="M616.7629,245.6155c-10.3818,0-18.21,7.6387-18.21,17.7686s7.8281,17.7686,18.21,17.7686,18.21-7.6387,18.21-17.7686-7.8281-17.7686-18.21-17.7686Zm0,32.4844c-8.5293,0-14.9609-6.3262-14.9609-14.7158s6.4316-14.7158,14.9609-14.7158c8.501,0,14.9121,6.3267,14.9121,14.7158s-6.4111,14.7158-14.9121,14.7158Z"/>
    <path class="cls-1" d="M655.1916,262.0237c-4.9668-1.2148-9.6572-2.3633-9.6572-6.9692,0-4.0605,3.4678-6.4844,9.2773-6.4844,3.2402,0,6.5908,1.0293,9.1943,2.8242l.3662,.2524,1.248-2.6929-.251-.1812c-2.6973-1.9473-6.7422-3.1572-10.5576-3.1572-9.2354,0-12.5264,4.9014-12.5264,9.4883,0,6.9395,6.2773,8.4736,11.8164,9.8262,4.9336,1.2061,9.5947,2.3447,9.5947,6.9307,0,3.9678-3.5596,6.3369-9.5225,6.3369-4.2646,0-8.6006-1.6475-11.0469-4.1963l-.3379-.3525-1.5254,2.5205,.1885,.207c2.6436,2.9014,7.6562,4.7764,12.7715,4.7764,5.8682,0,12.7217-2.4717,12.7217-9.4395,0-6.8125-6.2441-8.3408-11.7539-9.6895Z"/>
    <path class="cls-1" d="M688.9982,245.8601h-12.6729v35.0474h3.249v-11.2197h9.4238c8.8867,0,14.1924-4.4443,14.1924-11.8896,0-7.4751-5.3057-11.938-14.1924-11.938Zm0,20.8237h-9.4238v-17.8198h9.4238c7.0254,0,10.8945,3.1729,10.8945,8.9341,0,5.7305-3.8691,8.8857-10.8945,8.8857Z"/>
    <rect class="cls-1" x="712.5168" y="245.8601" width="3.249" height="35.0474"/>
    <polygon class="cls-1" points="723.1652 248.864 735.5119 248.864 735.5119 280.9074 738.7609 280.9074 738.7609 248.864 751.1076 248.864 751.1076 245.8601 723.1652 245.8601 723.1652 248.864"/>
    <path class="cls-1" d="M767.3986,245.8601l-16.1211,35.0474h3.5215l4.3613-9.6523h19.4082l4.4102,9.6523h3.5205l-16.1211-35.0474h-2.9795Zm-6.9199,22.5386l8.3857-18.5127,8.4316,18.5127h-16.8174Z"/>
    <polygon class="cls-1" points="797.0412 245.8601 793.7922 245.8601 793.7922 280.9074 816.7863 280.9074 816.7863 277.9035 797.0412 277.9035 797.0412 245.8601"/>
  </g>
</svg>